<?xml version="1.0" encoding="UTF-8" standalone="no"?>
<!DOCTYPE svg PUBLIC "-//W3C//DTD SVG 20010904//EN"
              "http://www.w3.org/TR/2001/REC-SVG-20010904/DTD/svg10.dtd">

<svg xmlns="http://www.w3.org/2000/svg"
     width="8.88889in" height="8.88889in"
     viewBox="0 0 640 640">
  <path id="Selection"
        fill="none" stroke="black" stroke-width="1"
        d="M 335.00,100.21
           C 351.23,100.03 375.51,106.13 391.00,111.26
             459.64,133.98 514.26,191.97 532.48,262.00
             535.64,274.15 539.85,292.60 540.00,305.00
             540.30,330.57 540.70,334.56 536.43,360.00
             536.43,360.00 534.76,370.00 534.76,370.00
             520.49,430.75 484.67,477.59 432.00,510.47
             416.01,520.45 387.53,531.60 369.00,535.49
             369.00,535.49 361.00,536.61 361.00,536.61
             351.98,538.21 346.48,539.99 337.00,540.00
             337.00,540.00 301.00,540.00 301.00,540.00
             293.44,539.91 286.37,537.77 279.00,536.46
             279.00,536.46 271.00,535.49 271.00,535.49
             260.14,533.24 248.28,529.07 238.00,524.92
             170.08,497.52 121.94,440.09 105.24,369.00
             105.24,369.00 103.56,358.00 103.56,358.00
             99.53,332.93 99.96,335.29 100.00,310.00
             100.01,300.48 102.06,291.34 103.56,282.00
             114.14,216.23 157.01,156.64 216.00,125.48
             227.11,119.62 243.98,112.23 256.00,108.78
             256.00,108.78 263.00,107.25 263.00,107.25
             263.00,107.25 272.00,104.52 272.00,104.52
             272.00,104.52 280.00,103.54 280.00,103.54
             280.00,103.54 298.00,100.21 298.00,100.21
             298.00,100.21 335.00,100.21 335.00,100.21 Z
           M 430.61,273.21
           C 426.89,269.14 422.26,268.07 417.00,268.00
             417.00,268.00 367.00,268.00 367.00,268.00
             362.62,267.99 356.26,268.56 358.52,262.00
             358.52,262.00 368.96,236.00 368.96,236.00
             372.85,223.21 372.87,209.78 368.96,197.00
             365.83,186.74 360.49,179.64 349.00,180.02
             344.56,180.16 341.40,181.36 338.70,185.09
             334.84,190.42 336.08,201.42 336.00,208.00
             335.85,218.89 330.01,221.57 323.09,229.00
             315.44,237.21 302.64,252.36 297.31,262.00
             279.92,293.48 283.00,321.54 283.00,356.00
             283.00,356.00 283.00,389.00 283.00,389.00
             283.04,392.36 283.19,397.05 285.56,399.69
             287.98,402.38 291.71,401.99 295.00,402.00
             295.00,402.00 407.00,402.00 407.00,402.00
             411.91,401.99 415.88,402.18 419.79,398.61
             426.26,392.69 425.77,379.36 418.00,375.00
             421.53,372.22 425.60,369.94 427.99,366.00
             433.00,357.72 429.10,347.40 421.00,343.00
             421.00,343.00 421.00,341.00 421.00,341.00
             432.45,338.28 438.52,327.97 433.28,317.00
             430.93,312.09 426.28,309.21 423.00,305.00
             437.00,300.23 438.00,281.28 430.61,273.21 Z
           M 206.02,299.11
           C 204.90,301.10 205.02,303.77 205.00,306.00
             205.00,306.00 205.00,325.00 205.00,325.00
             205.00,325.00 205.00,396.00 205.00,396.00
             205.00,401.36 203.39,415.87 208.23,418.83
             210.50,420.22 214.37,420.00 217.00,420.00
             217.00,420.00 250.00,420.00 250.00,420.00
             253.65,420.00 260.78,420.64 263.57,418.26
             266.41,415.85 265.99,411.37 266.00,408.00
             266.00,408.00 266.00,322.00 266.00,322.00
             266.00,316.06 267.70,300.28 262.85,296.74
             260.10,294.72 256.25,295.01 253.00,295.21
             253.00,295.21 211.00,295.21 211.00,295.21
             208.70,296.37 207.35,296.74 206.02,299.11 Z" />
</svg>
